<?xml version="1.0" encoding="utf-8"?>
<svg xmlns="http://www.w3.org/2000/svg" xmlns:xlink="http://www.w3.org/1999/xlink">
	<symbol id="logo" width="389px" height="81px" viewBox="0 0 389 81">
		<g>
		<path opacity="1.00" d=" M 169.67 0.00 L 173.40 0.00 C 180.56 0.49 187.75 2.31 193.81 6.26 C 202.17 11.45 208.22 20.09 210.41 29.67 C 204.81 31.23 199.19 32.73 193.56 34.16 C 191.93 26.73 186.94 19.89 179.69 17.13 C 170.62 13.35 159.16 16.42 153.48 24.51 C 148.99 30.57 148.04 38.64 149.79 45.86 C 144.18 47.38 138.57 48.89 132.94 50.33 C 129.65 38.51 131.71 25.11 139.33 15.35 C 146.41 5.90 158.00 0.57 169.67 0.00 Z" />
		<path opacity="1.00" d=" M 5.56 11.50 C 10.07 6.03 17.15 3.34 24.06 2.70 C 35.36 1.77 47.06 5.09 55.86 12.34 C 52.88 16.58 50.00 20.88 47.01 25.11 C 41.27 21.35 34.94 17.93 27.95 17.58 C 24.67 17.50 20.92 18.08 18.71 20.77 C 16.37 23.65 17.60 28.40 20.99 29.86 C 27.69 33.29 35.38 33.97 42.33 36.77 C 48.53 39.08 54.88 43.15 56.98 49.79 C 59.33 57.87 57.93 67.64 51.59 73.59 C 46.51 78.58 39.26 80.44 32.36 81.00 L 30.00 81.00 C 30.00 76.05 30.00 71.09 30.00 66.14 C 33.40 65.67 37.44 65.55 39.78 62.63 C 42.16 59.97 41.46 55.41 38.33 53.65 C 32.06 49.97 24.63 49.28 17.87 46.84 C 11.55 44.84 4.85 41.38 2.26 34.87 C -0.56 27.23 0.22 17.89 5.56 11.50 Z" />
		<path opacity="1.00" d=" M 64.76 3.76 C 85.84 3.74 106.91 3.75 127.99 3.75 C 128.00 8.92 128.01 14.08 127.99 19.25 C 120.25 19.26 112.51 19.24 104.76 19.25 C 104.74 31.14 104.75 43.03 104.76 54.92 C 99.10 56.25 93.43 57.51 87.75 58.77 C 87.74 45.60 87.76 32.43 87.74 19.26 C 80.08 19.24 72.42 19.27 64.76 19.24 C 64.74 14.08 64.74 8.92 64.76 3.76 Z" />
		<path opacity="1.00" d=" M 233.51 55.49 C 233.50 38.25 233.48 21.00 233.52 3.75 C 246.00 3.75 258.48 3.75 270.97 3.75 C 278.55 4.02 286.49 6.54 291.63 12.38 C 297.51 19.27 298.43 29.35 295.91 37.80 C 293.81 44.90 287.79 50.14 281.06 52.77 C 287.24 61.73 293.40 70.71 299.49 79.74 C 292.81 79.72 286.13 79.85 279.46 79.67 C 274.19 71.53 268.76 63.49 263.29 55.48 C 253.36 55.52 243.43 55.50 233.51 55.49 M 250.51 19.00 C 250.50 26.17 250.50 33.33 250.51 40.49 C 256.02 40.52 261.54 40.47 267.06 40.52 C 270.44 40.60 274.01 39.81 276.65 37.59 C 280.90 33.91 281.11 26.73 277.45 22.58 C 274.75 19.79 270.67 19.03 266.95 18.99 C 261.47 18.99 255.99 19.00 250.51 19.00 Z" />
		<path opacity="1.00" d=" M 312.51 3.76 C 318.62 3.74 324.73 3.76 330.84 3.74 C 337.52 14.29 344.01 24.96 350.66 35.53 C 357.27 25.02 363.84 14.47 370.32 3.87 C 376.45 3.59 382.60 3.82 388.74 3.75 C 388.76 21.00 388.76 38.25 388.74 55.50 C 383.16 55.50 377.58 55.51 372.00 55.49 C 371.99 47.17 372.02 38.84 371.99 30.51 C 364.83 41.38 357.79 52.33 350.44 63.06 C 343.26 52.47 336.32 41.72 329.27 31.05 C 329.22 47.28 329.28 63.51 329.24 79.75 C 323.64 79.71 318.05 79.85 312.46 79.67 C 312.56 54.37 312.46 29.06 312.51 3.76 Z" />
		<path opacity="1.00" d=" M 203.95 35.79 C 209.59 34.31 215.22 32.78 220.85 31.29 C 223.56 42.53 221.36 55.03 214.27 64.27 C 203.89 78.55 183.71 83.24 167.44 77.49 C 155.93 73.55 146.56 63.77 143.39 51.99 C 148.98 50.41 154.60 48.97 160.21 47.45 C 161.94 53.10 165.44 58.36 170.66 61.31 C 178.90 66.23 190.44 65.19 197.30 58.35 C 203.32 52.69 205.55 43.77 203.95 35.79 Z" />
		</g>
	</symbol>
	<symbol id="rotate-phone" version="1.1" xmlns="http://www.w3.org/2000/svg" xmlns:xlink="http://www.w3.org/1999/xlink" x="0px" y="0px" viewBox="0 0 1000 1000" enable-background="new 0 0 1000 1000" xml:space="preserve">
		<g><path d="M885.3,13.5H532.6c-57.7,0-104.6,47.1-104.6,105.2v762.6c0,58.1,46.8,105.2,104.6,105.2h352.8c57.7,0,104.6-47.1,104.6-105.2V118.7C989.9,60.6,943.1,13.5,885.3,13.5z M624.1,105.6h169.8v39.5H624.1V105.6z M562.8,106c11.3,0,20.3,9.2,20.3,20.5s-9.1,20.5-20.3,20.5s-20.3-9.2-20.3-20.5S551.6,106,562.8,106z M718.7,909.3c-19.6,0-35.4-16-35.4-35.7s15.9-35.7,35.4-35.7s35.4,16,35.4,35.7S738.2,909.3,718.7,909.3z M924.6,815.5H493.4v-631h431.2V815.5z M166.7,583.4h-65.3v197.2h65.3V583.4z M140.7,754.3h-13.1V609.6h13.1V754.3z M386.1,517.4v-26.2H210.4V890h175.7v-26.2H236.4V517.4H386.1z M135.3,874c18.4,0,33.4-15.1,33.4-33.6c0-18.5-15-33.6-33.4-33.6c-18.4,0-33.4,15.1-33.4,33.6C102,858.9,117,874,135.3,874z M135.3,833.1c4,0,7.3,3.3,7.3,7.3s-3.3,7.3-7.3,7.3c-4,0-7.3-3.3-7.3-7.3S131.3,833.1,135.3,833.1z M10,513.1v355c0,65.2,52.7,118.3,117.6,118.3h258.5v-26.2H127.6c-50.4,0-91.5-41.3-91.5-92.1v-355c0-50.7,41-92.1,91.5-92.1h258.5v-26.2H127.6C62.7,394.8,10,447.9,10,513.1z M239.7,110.2c3.6-0.4,7.2-0.8,10.8-1.1l-46.9,53.6l19.6,17.4L301,91.3l-97.9-67.7l-14.8,21.7l55.4,38.3c-2.5,0.2-4.9,0.4-7.4,0.8c-104,13.6-183.8,92.8-203.9,190.8l25,7.7C74.5,194.2,146.2,122.4,239.7,110.2z"/></g>
	</symbol>
	<symbol viewBox="0 0 14 14" id="calc">
		<g><g><line x1="1" y1="3" x2="5" y2="3"></line><line x1="9" y1="3" x2="13" y2="3"></line><line x1="9" y1="13" x2="13" y2="13"></line><line x1="9" y1="9" x2="13" y2="9"></line><line x1="3" y1="1" x2="3" y2="5"></line><line x1="1" y1="9" x2="5" y2="13"></line><line x1="5" y1="9" x2="1" y2="13"></line></g></g>
	</symbol>
	<symbol viewBox="0 0 172 172" id="play">
		<g transform=""><g fill="none" fill-rule="nonzero" stroke="none" stroke-width="1" stroke-linecap="butt" stroke-linejoin="miter" stroke-miterlimit="10" stroke-dasharray="" stroke-dashoffset="0" font-family="none" font-weight="none" font-size="none" text-anchor="none" style="mix-blend-mode: normal"><path d="M0,172v-172h172v172z" fill="none"></path><g fill="black"><path d="M48.375,27.71484v116.57031l8.23047,-5.375l82.30469,-52.91016l-82.30469,-52.91016zM59.125,47.36719l59.96484,38.63281l-59.96484,38.63281z"></path></g></g></g>
	</symbol>
	<symbol viewBox="0 0 16 16" id="inst">
		<path d="M11.669 0H4.33108C1.9429 0 2.86102e-05 1.94287 2.86102e-05 4.33105V11.669C2.86102e-05 14.0571 1.9429 16 4.33108 16H11.6691C14.0571 16 16 14.0571 16 11.669V4.33105C16 1.94287 14.0571 0 11.669 0ZM8.00001 11.5C6 11.5 4.5 10 4.5 7.99999C4.5 5.99997 6 4.5 8.00001 4.5C10.3007 4.5 11.5 6.30529 11.5 7.99999C11.5 10.3537 9.5 11.5 8.00001 11.5ZM12.4795 4.65685C11.7666 4.65685 11.1868 4.07702 11.1868 3.36413C11.1868 2.65124 11.7666 2.07129 12.4795 2.07129C13.1924 2.07129 13.7723 2.65124 13.7723 3.36413C13.7723 4.07702 13.1924 4.65685 12.4795 4.65685Z"></path>
	</symbol>
	<symbol viewBox="0 0 14 8" fill="none" id="vk">
		<path d="M12.049 5.07622C12.5134 5.52963 13.0035 5.9562 13.4201 6.45533C13.6041 6.67714 13.7782 6.90601 13.9115 7.16342C14.1004 7.52934 13.9293 7.932 13.6012 7.95385L11.5617 7.95292C11.0356 7.99656 10.616 7.78481 10.2631 7.42513C9.98074 7.1375 9.71923 6.83139 9.4477 6.53405C9.33639 6.41254 9.21988 6.29818 9.0807 6.20779C8.80228 6.02707 8.56059 6.08239 8.40148 6.37278C8.23944 6.66815 8.20266 6.99518 8.18675 7.32434C8.1649 7.80461 8.01973 7.93088 7.5373 7.95286C6.50631 8.00148 5.52784 7.84551 4.61885 7.32541C3.81746 6.86691 3.19604 6.2196 2.65513 5.48681C1.60204 4.05994 0.795534 2.49199 0.0707058 0.880133C-0.0924544 0.51698 0.0268738 0.322047 0.427569 0.315129C1.09293 0.302195 1.7582 0.303125 2.42435 0.314199C2.69478 0.318164 2.8738 0.473258 2.97822 0.72873C3.3382 1.61387 3.77868 2.45601 4.33158 3.23659C4.47882 3.4444 4.62897 3.65224 4.84274 3.7985C5.07926 3.96046 5.25935 3.90678 5.37061 3.6433C5.44121 3.47623 5.47214 3.29628 5.48805 3.11737C5.54077 2.50178 5.54772 1.88723 5.45527 1.2738C5.3985 0.89096 5.18287 0.643117 4.80085 0.570683C4.60592 0.533742 4.63493 0.461199 4.72932 0.349937C4.89324 0.158039 5.04744 0.0385742 5.35481 0.0385742H7.65983C8.02271 0.110187 8.10329 0.273211 8.15298 0.638332L8.15495 3.19872C8.15098 3.34006 8.22555 3.75954 8.48015 3.85308C8.68391 3.91969 8.81822 3.75667 8.94051 3.62747C9.49238 3.04174 9.88627 2.3495 10.2382 1.63271C10.3943 1.31752 10.5286 0.990218 10.6587 0.66316C10.7551 0.420484 10.9064 0.301074 11.1798 0.306351L13.3982 0.30832C13.464 0.30832 13.5306 0.309277 13.5943 0.320187C13.9681 0.383898 14.0706 0.544707 13.9551 0.909746C13.7732 1.48246 13.4192 1.95975 13.0731 2.43922C12.7032 2.95112 12.3075 3.44552 11.9406 3.96046C11.6035 4.43077 11.6303 4.66779 12.049 5.07622Z" fill="currentColor"></path>
	</symbol>
	<symbol id="tg" width="24px" height="24px" version="1.1" xmlns="http://www.w3.org/2000/svg" xmlns:xlink="http://www.w3.org/1999/xlink" xml:space="preserve" xmlns:serif="http://www.serif.com/" style="fill-rule:evenodd;clip-rule:evenodd;stroke-linejoin:round;stroke-miterlimit:1.41421;">
		<path d="M18.384,22.779c0.322,0.228 0.737,0.285 1.107,0.145c0.37,-0.141 0.642,-0.457 0.724,-0.84c0.869,-4.084 2.977,-14.421 3.768,-18.136c0.06,-0.28 -0.04,-0.571 -0.26,-0.758c-0.22,-0.187 -0.525,-0.241 -0.797,-0.14c-4.193,1.552 -17.106,6.397 -22.384,8.35c-0.335,0.124 -0.553,0.446 -0.542,0.799c0.012,0.354 0.25,0.661 0.593,0.764c2.367,0.708 5.474,1.693 5.474,1.693c0,0 1.452,4.385 2.209,6.615c0.095,0.28 0.314,0.5 0.603,0.576c0.288,0.075 0.596,-0.004 0.811,-0.207c1.216,-1.148 3.096,-2.923 3.096,-2.923c0,0 3.572,2.619 5.598,4.062Zm-11.01,-8.677l1.679,5.538l0.373,-3.507c0,0 6.487,-5.851 10.185,-9.186c0.108,-0.098 0.123,-0.262 0.033,-0.377c-0.089,-0.115 -0.253,-0.142 -0.376,-0.064c-4.286,2.737 -11.894,7.596 -11.894,7.596Z"/>
	</symbol>
	<symbol id="date" viewBox="0 0 172 172" version="1.1" xmlns="http://www.w3.org/2000/svg" xmlns:xlink="http://www.w3.org/1999/xlink" xml:space="preserve" xmlns:serif="http://www.serif.com/" style="fill-rule:evenodd;clip-rule:evenodd;stroke-linejoin:round;stroke-miterlimit:1.41421;">
		<g fill="none" fill-rule="nonzero" stroke="none" stroke-width="1" stroke-linecap="butt" stroke-linejoin="miter" stroke-miterlimit="10" stroke-dasharray="" stroke-dashoffset="0" font-family="none" font-weight="none" font-size="none" text-anchor="none" style="mix-blend-mode: normal"><path d="M0,172v-172h172v172z" fill="none"></path><g fill="#000000"><path d="M48.375,21.5v5.375h-21.5v53.75h10.75v-21.5h96.75v75.25h-96.75v-21.5h-10.75v32.25h118.25v-118.25h-21.5v-5.375h-10.75v5.375h-53.75v-5.375zM37.625,37.625h10.75v5.375h10.75v-5.375h53.75v5.375h10.75v-5.375h10.75v10.75h-96.75zM59.125,75.25v16.125h-37.625v10.75h37.625v16.125l26.875,-21.5z"></path></g></g>
	</symbol>
	<symbol id="print" viewBox="0 0 172 172" version="1.1" xmlns="http://www.w3.org/2000/svg" xmlns:xlink="http://www.w3.org/1999/xlink" xml:space="preserve" xmlns:serif="http://www.serif.com/" style="fill-rule:evenodd;clip-rule:evenodd;stroke-linejoin:round;stroke-miterlimit:1.41421;">
		<g fill="none" fill-rule="nonzero" stroke="none" stroke-width="1" stroke-linecap="butt" stroke-linejoin="miter" stroke-miterlimit="10" stroke-dasharray="" stroke-dashoffset="0" font-family="none" font-weight="none" font-size="none" text-anchor="none" style="mix-blend-mode: normal"><path d="M0,172v-172h172v172z" fill="none"></path><g fill="#000000"><path d="M28.66667,0v50.16667h-21.5c-3.94726,0 -7.16667,3.2194 -7.16667,7.16667v78.83333c0,3.94726 3.2194,7.16667 7.16667,7.16667h21.5v28.66667h114.66667v-28.66667h21.5c3.94726,0 7.16667,-3.2194 7.16667,-7.16667v-78.83333c0,-3.94726 -3.2194,-7.16667 -7.16667,-7.16667h-21.5v-50.16667zM43,14.33333h86v35.83333h-86zM150.5,64.5c3.94726,0 7.16667,3.2194 7.16667,7.16667c0,3.94726 -3.2194,7.16667 -7.16667,7.16667c-3.94726,0 -7.16667,-3.2194 -7.16667,-7.16667c0,-3.94726 3.2194,-7.16667 7.16667,-7.16667zM43,107.5h86v50.16667h-86zM57.33333,121.83333v7.16667h57.33333v-7.16667zM57.33333,136.16667v7.16667h35.83333v-7.16667z"></path></g></g>
	</symbol>
</svg>